<svg width="50" height="50" viewBox="0 0 50 50" fill="none" xmlns="http://www.w3.org/2000/svg">
<g clip-path="url(#clip0_175_244)">
<path d="M0 24.9997C0 35.7487 6.78438 44.9123 16.3042 48.4446L18.4782 24.9996L16.3042 1.55469C6.78438 5.08711 0 14.2506 0 24.9997Z" fill="#6DA544"/>
<path d="M50.0005 25C50.0005 11.193 38.8075 0 25.0005 0C21.9425 0 19.0131 0.550098 16.3047 1.55498V48.445C19.0131 49.45 21.9425 50 25.0005 50C38.8075 50 50.0005 38.807 50.0005 25Z" fill="#D80027"/>
<path d="M16.304 33.6959C21.1065 33.6959 24.9996 29.8027 24.9996 25.0003C24.9996 20.1978 21.1065 16.3047 16.304 16.3047C11.5016 16.3047 7.6084 20.1978 7.6084 25.0003C7.6084 29.8027 11.5016 33.6959 16.304 33.6959Z" fill="#FFDA44"/>
<path d="M11.4131 20.6523V26.0871C11.4131 28.7885 13.6029 30.9784 16.3044 30.9784C19.0059 30.9784 21.1957 28.7886 21.1957 26.0871V20.6523H11.4131Z" fill="#D80027"/>
<path d="M16.3043 27.7174C15.4053 27.7174 14.6738 26.9859 14.6738 26.0869V23.9131H17.9347V26.087C17.9347 26.9859 17.2032 27.7174 16.3043 27.7174Z" fill="#F0F0F0"/>
</g>
<defs>
<clipPath id="clip0_175_244">
<rect width="50" height="50" fill="white"/>
</clipPath>
</defs>
</svg>
